<?xml version="1.0" encoding="utf-8"?>
<!-- Generator: Adobe Illustrator 18.0.0, SVG Export Plug-In . SVG Version: 6.00 Build 0)  -->
<!DOCTYPE svg PUBLIC "-//W3C//DTD SVG 1.1//EN" "http://www.w3.org/Graphics/SVG/1.1/DTD/svg11.dtd">
<svg version="1.1" id="Layer_1" xmlns="http://www.w3.org/2000/svg" xmlns:xlink="http://www.w3.org/1999/xlink" x="0px" y="0px"
	 viewBox="0 0 64 64" enable-background="new 0 0 64 64" xml:space="preserve">
<g>
	<polygon fill = "#000000" points="51,55 40,55 40,41 24,41 24,55 13,55 13,34 9,34 9,59 28,59 28,45 36,45 36,59 55,59 55,34 51,34 	"/>
	<path fill = "#000000" d="M53,21.3V6H41v4.4l-9-8.1L-0.3,31.5l2.7,3L32,7.7l29.7,26.8l2.7-3L53,21.3z M45,10h4v7.7L45,14V10z"/>
</g>
</svg>
