<?xml version="1.0" encoding="UTF-8" standalone="no"?>
<!DOCTYPE svg PUBLIC "-//W3C//DTD SVG 20010904//EN"
              "http://www.w3.org/TR/2001/REC-SVG-20010904/DTD/svg10.dtd">

<svg xmlns="http://www.w3.org/2000/svg"
     width="2.11in" height="2.91667in"
     viewBox="0 0 633 875">
  <path id="Selection"
        fill="none" stroke="black" stroke-width="1"
        d="M 89.00,0.22
           C 76.34,2.50 66.49,5.47 55.00,11.25
             47.08,15.23 39.52,20.04 33.00,26.09
             14.15,43.56 0.04,68.72 0.00,95.00
             0.00,95.00 0.00,128.00 0.00,128.00
             0.00,128.00 0.00,191.00 0.00,191.00
             0.00,191.00 0.00,780.00 0.00,780.00
             0.06,818.19 28.45,853.55 63.00,867.55
             81.90,875.20 91.38,875.03 111.00,875.00
             120.53,874.99 128.99,872.98 138.00,870.00
             170.31,859.32 195.80,834.07 204.85,801.00
             206.52,794.87 207.92,788.36 208.00,782.00
             208.00,782.00 208.00,667.00 208.00,667.00
             208.00,667.00 208.00,438.00 208.00,438.00
             208.00,438.00 208.00,208.00 208.00,208.00
             208.00,208.00 208.00,93.00 208.00,93.00
             207.86,80.98 203.57,67.67 198.25,57.00
             185.16,30.77 164.79,13.73 137.00,4.67
             129.60,2.26 120.79,0.09 113.00,0.22
             113.00,0.22 89.00,0.22 89.00,0.22 Z
           M 514.00,0.22
           C 501.34,2.50 491.49,5.47 480.00,11.25
             472.08,15.23 464.52,20.04 458.00,26.09
             439.15,43.56 425.04,68.72 425.00,95.00
             425.00,95.00 425.00,128.00 425.00,128.00
             425.00,128.00 425.00,191.00 425.00,191.00
             425.00,191.00 425.00,780.00 425.00,780.00
             425.06,818.19 453.45,853.55 488.00,867.55
             506.90,875.20 516.38,875.03 536.00,875.00
             545.53,874.99 553.99,872.98 563.00,870.00
             595.31,859.32 620.80,834.07 629.85,801.00
             631.52,794.87 632.92,788.36 633.00,782.00
             633.00,782.00 633.00,667.00 633.00,667.00
             633.00,667.00 633.00,438.00 633.00,438.00
             633.00,438.00 633.00,208.00 633.00,208.00
             633.00,208.00 633.00,93.00 633.00,93.00
             632.86,80.98 628.57,67.67 623.25,57.00
             610.16,30.77 589.79,13.73 562.00,4.67
             554.60,2.26 545.79,0.09 538.00,0.22
             538.00,0.22 514.00,0.22 514.00,0.22 Z" />
</svg>
